# xmcd
#
# Track frame offsets: 
#        150
#        15127
#        35441
#        52242
#        78263
#        95267
#        120220
#        133184
#        152341
#        176736
#        191687
#        215987
#        246175
#        257079
#
# Disc length: 3850 seconds
#
# Revision: 0
# Processed by: cddbd v1.5.2PL0 Copyright (c) Steve Scherf et al.
# Submitted via: ExactAudioCopyFreeDBPlugin 1.0
#
DISCID=b60f080e
DTITLE=Various Artist - Road To Memphis - Groove City
DYEAR=2016
DGENRE=R&B
TTITLE0=Wee Willie Walker - Who's Making Love
TTITLE1=Jerry Jones - You Got Me Hummin'
TTITLE2=Bruce James - Ain't Doin' Too Bad
TTITLE3=Susan Marshall - You're Takin' Up Another Man's Place
TTITLE4=Rick Hutton - Hard To Handle
TTITLE5=Wee Willie Walker - (I Feel Like) Breaking Up Somebody's Home
TTITLE6=Sax Gordon - Shake
TTITLE7=Bruce James - No Need No Money
TTITLE8=Jerry Jones and Sax Gordon - When Something Is Wrong With My Bab
TTITLE8=y
TTITLE9=Jerry Jones - (If I Could) Turn Back The Hands Of Time
TTITLE10=Sax Gordon - Memphis Soul Stew
TTITLE11=Bella Black - Dr. Feelgood
TTITLE12=Rick Hutton - Land Of 1,000 Dances
TTITLE13=Bruce James - Dangerous Mood
EXTD=Sean P.
EXTT0=
EXTT1=
EXTT2=
EXTT3=
EXTT4=
EXTT5=
EXTT6=
EXTT7=
EXTT8=
EXTT9=
EXTT10=
EXTT11=
EXTT12=
EXTT13=
PLAYORDER=
